<svg width="16" height="16" viewBox="0 0 16 16" fill="none" xmlns="http://www.w3.org/2000/svg">
<path d="M13.6661 0H2.33324C1.06662 0 0 1.06662 0 2.33324V3.3332H4.39983C4.59982 3.3332 4.73315 3.39987 4.86647 3.53319L5.86644 4.53315H15.9994V2.33324C15.9994 1.06662 14.9327 0 13.6661 0ZM8.26634 2.73323C7.99968 2.99988 7.5997 2.99988 7.33304 2.73323C7.06639 2.46657 7.06639 2.06658 7.33304 1.79993C7.5997 1.53327 8.06635 1.53327 8.26634 1.79993C8.46633 1.99992 8.533 2.46657 8.26634 2.73323ZM10.9329 2.73323C10.5996 2.99988 10.1996 2.99988 9.99961 2.73323C9.73295 2.46657 9.73295 1.99992 9.99961 1.79993C10.2663 1.53327 10.6662 1.53327 10.9329 1.79993C11.1996 2.06658 11.1329 2.46657 10.9329 2.73323ZM13.5995 2.73323C13.3328 2.99988 12.8662 2.99988 12.6662 2.73323C12.3995 2.46657 12.3995 2.06658 12.6662 1.79993C12.9328 1.53327 13.3328 1.53327 13.5995 1.79993C13.7995 1.99992 13.8661 2.46657 13.5995 2.73323Z" fill="#DE3720"/>
<path d="M5.06647 5.66683L4.06651 4.66687H0V13.6665C0 14.9331 1.06662 15.9998 2.33324 15.9998H13.6661C14.9327 15.9998 15.9994 14.9331 15.9994 13.6665V5.86682H5.59978C5.39979 5.86682 5.19979 5.73349 5.06647 5.66683ZM10.9996 12.8665H4.9998C4.59982 12.8665 4.33316 12.5999 4.33316 12.1999C4.33316 11.7999 4.59982 11.5333 4.9998 11.5333H11.0662C11.4662 11.5333 11.7329 11.7999 11.7329 12.1999C11.7329 12.5999 11.3995 12.8665 10.9996 12.8665ZM11.6662 9.0667C11.6662 9.46668 11.3995 9.73334 10.9996 9.73334H4.9998C4.59982 9.73334 4.33316 9.46668 4.33316 9.0667C4.33316 8.66671 4.59982 8.40006 4.9998 8.40006H11.0662C11.3996 8.40006 11.6662 8.73338 11.6662 9.0667Z" fill="#DE3720"/>
</svg>
