<svg width="17" height="17" viewBox="0 0 17 17" fill="none" xmlns="http://www.w3.org/2000/svg">
<path d="M15.8336 0H0.833336C0.333327 0 0 0.333327 0 0.833336V1.66667V5.00009V5.83343C0 6.33344 0.333327 6.66677 0.833336 6.66677H2.50005V5.00009H1.66671V1.66671H15.0003V5.00009H14.1669V6.66681H15.8337C16.3337 6.66681 16.667 6.33348 16.667 5.83347V5.00009V1.66671V0.833336C16.667 0.333327 16.3336 0 15.8336 0Z" fill="#DE3720"/>
<path d="M4.16602 4.16687V15.8338C4.16602 16.3338 4.49934 16.6671 4.99935 16.6671H5.83269V3.3335H4.99935C4.49934 3.3335 4.16602 3.66686 4.16602 4.16687Z" fill="#DE3720"/>
<path d="M11.6668 3.3335H7.5V16.6671H11.6668C12.0834 16.6671 12.5001 16.2504 12.5001 15.8337V4.16687C12.5001 3.66686 12.0834 3.3335 11.6668 3.3335ZM10 9.16697C9.58336 9.16697 9.16671 8.75028 9.16671 8.33363C9.16671 7.91698 9.58336 7.50025 10 7.50025C10.4167 7.50025 10.8334 7.91694 10.8334 8.33359C10.8334 8.75024 10.4167 9.16697 10 9.16697ZM10 6.66692C9.58336 6.66692 9.16671 6.25023 9.16671 5.83358C9.16671 5.41693 9.58336 5.00021 10 5.00021C10.4167 5.00021 10.8334 5.41689 10.8334 5.83354C10.8334 6.25019 10.4167 6.66692 10 6.66692Z" fill="#DE3720"/>
</svg>
