<svg width="16" height="15" viewBox="0 0 16 15" fill="none" xmlns="http://www.w3.org/2000/svg">
<path d="M13.6144 1.93335C12.1091 0.686568 10.1152 0 8 0C5.88476 0 3.89085 0.686568 2.38556 1.93335C0.847265 3.20748 0 4.91089 0 6.72971C0 8.51127 0.831481 10.2023 2.30326 11.4567C1.62102 12.5865 0.476411 13.6462 0.463222 13.6583C0.213968 13.8873 0.142876 14.2414 0.285578 14.5422C0.418724 14.8226 0.710746 15 1.02884 15C1.05215 15 1.07568 14.9991 1.09924 14.9971C1.23628 14.9858 4.40454 14.7126 7.15377 13.4218C7.43563 13.4468 7.71935 13.4595 8.00004 13.4595C10.1153 13.4595 12.1092 12.7728 13.6145 11.5261C15.1527 10.2519 16 8.54852 16 6.72971C16 4.91089 15.1527 3.20748 13.6144 1.93335ZM3.91831 7.5C3.23762 7.5 2.68368 6.97097 2.68368 6.32071C2.68368 5.67049 3.23762 5.14146 3.91831 5.14146C4.59914 5.14146 5.15295 5.67049 5.15295 6.32071C5.15295 6.97097 4.59914 7.5 3.91831 7.5ZM8 7.5C7.31926 7.5 6.76536 6.97097 6.76536 6.32071C6.76536 5.67049 7.31926 5.14146 8 5.14146C8.68074 5.14146 9.23464 5.67049 9.23464 6.32071C9.23464 6.97097 8.68074 7.5 8 7.5ZM12.0817 7.5C11.4009 7.5 10.847 6.97097 10.847 6.32071C10.847 5.67049 11.4009 5.14146 12.0817 5.14146C12.7624 5.14146 13.3163 5.67049 13.3163 6.32071C13.3163 6.97097 12.7624 7.5 12.0817 7.5Z" fill="#DE3720"/>
</svg>
