<svg width="20" height="12" viewBox="0 0 20 12" fill="none" xmlns="http://www.w3.org/2000/svg">
<path d="M19.4141 0H0.585938C0.262344 0 0 0.261309 0 0.583627V11.4164C0 11.7387 0.262344 12 0.585938 12H19.4141C19.7377 12 20 11.7387 20 11.4164V0.583627C20 0.261309 19.7377 0 19.4141 0ZM3.34824 6.85357H10.6305C10.9541 6.85357 11.2164 7.11488 11.2164 7.4372C11.2164 7.75952 10.9541 8.02083 10.6305 8.02083H3.34824C3.02465 8.02083 2.7623 7.75952 2.7623 7.4372C2.7623 7.11488 3.02465 6.85357 3.34824 6.85357ZM2.7623 4.5628C2.7623 4.24048 3.02465 3.97917 3.34824 3.97917H9.07566C9.39926 3.97917 9.6616 4.24048 9.6616 4.5628C9.6616 4.88512 9.39926 5.14642 9.07566 5.14642H3.34824C3.02465 5.14642 2.7623 4.88512 2.7623 4.5628ZM15.5435 6.49624C14.9741 6.29574 14.391 6.06634 13.9834 5.74787C13.5689 5.42412 13.379 4.86628 13.4877 4.29207C13.6045 3.67479 14.0352 3.18283 14.6129 3.00475V2.82542C14.6129 2.5031 14.8752 2.24179 15.1988 2.24179C15.5224 2.24179 15.7848 2.5031 15.7848 2.82542V2.96876C16.1488 3.0607 16.403 3.22695 16.5079 3.30504C16.767 3.49803 16.8201 3.86377 16.6263 4.12193C16.4325 4.38004 16.0654 4.43292 15.8062 4.2399C15.6984 4.15963 15.4004 3.98715 14.9622 4.11854C14.7171 4.19212 14.653 4.43545 14.6393 4.50825C14.6132 4.64602 14.6409 4.77812 14.7066 4.82944C14.982 5.04456 15.4816 5.23642 15.9341 5.39571C16.7916 5.69764 17.2684 6.4892 17.1205 7.36545C17.0112 8.01281 16.5328 8.66881 15.7848 8.90191V9.12295C15.7848 9.44527 15.5225 9.70658 15.1989 9.70658C14.8753 9.70658 14.6129 9.44527 14.6129 9.12295V8.96276C14.2673 8.9167 13.9716 8.80351 13.5784 8.54726C13.3075 8.37081 13.2316 8.00908 13.4088 7.73937C13.5859 7.46961 13.9491 7.39405 14.2199 7.57046C14.5805 7.80547 14.7173 7.82691 15.195 7.82376C15.6489 7.82072 15.9122 7.48378 15.9648 7.17196C15.9962 6.98606 15.9832 6.65106 15.5435 6.49624Z" fill="#DE3720"/>
</svg>
