<svg width="16" height="16" viewBox="0 0 16 16" fill="none" xmlns="http://www.w3.org/2000/svg">
<path d="M8 0C12.4187 0 16 3.58125 16 8C16 12.4187 12.4187 16 8 16C3.58125 16 0 12.4187 0 8C0 3.58125 3.58125 0 8 0ZM8.75 4.75C8.75 4.3375 8.4125 4 8 4C7.5875 4 7.25 4.33594 7.25 4.75V8.75C7.25 9.16406 7.58594 9.5 8 9.5C8.41406 9.5 8.75 9.16562 8.75 8.75V4.75ZM8 12.5C8.5425 12.5 8.9825 12.06 8.9825 11.5175C8.9825 10.975 8.54281 10.535 8 10.535C7.45719 10.535 7.0175 10.975 7.0175 11.5175C7.01875 12.0594 7.45625 12.5 8 12.5Z" fill="#DE3720"/>
</svg>
