<svg width="14" height="20" viewBox="0 0 14 20" fill="none" xmlns="http://www.w3.org/2000/svg">
<path d="M13.8046 17.1467C13.5987 16.7665 13.2577 16.4893 12.843 16.3663L12.6726 16.3156L12.843 16.2648C13.2569 16.1414 13.5987 15.8642 13.8038 15.484C14.0096 15.1039 14.0552 14.6664 13.9322 14.2528C13.8091 13.8385 13.5319 13.4967 13.1521 13.2909C12.7709 13.0843 12.3318 13.0395 11.9202 13.1633L7.0004 14.6276L2.07976 13.1633C1.66732 13.0407 1.2291 13.0851 0.847793 13.2909C0.468017 13.4968 0.190796 13.8386 0.0677524 14.2525C-0.055291 14.6664 -0.00971923 15.1039 0.196119 15.4841C0.401191 15.8642 0.742978 16.1414 1.15691 16.2645L1.3279 16.3154L1.15691 16.3663C0.434185 16.5813 -0.0207659 17.2599 0.00737917 17.9804C0.00737917 17.9817 0.00701452 17.9828 0.00701452 17.9841C0.00701452 17.9846 0.00730629 17.985 0.00730629 17.9855C0.0128113 18.116 0.0288524 18.2472 0.0677888 18.3779C0.190832 18.7922 0.468054 19.134 0.847829 19.3398C1.02866 19.4376 1.22385 19.4868 1.42174 19.5112C1.4656 19.5283 1.51256 19.5396 1.56254 19.5396C1.57891 19.5396 1.59411 19.5353 1.61041 19.5347C1.61219 19.5347 1.61391 19.5354 1.61573 19.5354C1.62459 19.5354 1.63334 19.5316 1.64223 19.5315C1.7445 19.5262 1.84373 19.5121 1.93987 19.4879C1.98639 19.4784 2.03379 19.4811 2.07983 19.4674L7.00025 18.0033L10.6243 19.0818L10.762 19.1294C10.7787 19.1351 10.7963 19.1346 10.8135 19.138L11.9203 19.4674C12.0449 19.5046 12.1747 19.5244 12.3282 19.5293C12.3457 19.5449 12.3647 19.5308 12.3829 19.5304C13.0968 19.5304 13.7288 19.0629 13.9323 18.3782C14.0552 17.9639 14.0096 17.5268 13.8046 17.1467ZM1.67074 18.7399C1.51474 18.75 1.3594 18.7317 1.21845 18.6559C1.02096 18.5487 0.877433 18.3718 0.813632 18.1565C0.79194 18.0835 0.795768 18.0109 0.794018 17.9382C0.818992 17.5319 1.14962 17.2063 1.5625 17.2063C1.99164 17.2063 2.34025 17.5553 2.34025 17.984C2.34025 18.3745 2.04647 18.6851 1.67074 18.7399ZM13.1863 18.1569C13.0785 18.5203 12.7283 18.7482 12.3728 18.7535C11.9665 18.7193 11.6596 18.3889 11.6596 17.9841C11.6596 17.5554 12.0082 17.2064 12.4374 17.2064C12.8665 17.2064 13.2151 17.5554 13.2151 17.9841C13.2151 17.9936 13.2151 18.0031 13.2159 18.0126C13.2106 18.0608 13.2007 18.109 13.1863 18.1569Z" fill="#DE3720"/>
<path d="M6.99393 13.0948C9.56646 13.0948 11.6597 10.9864 11.6597 8.39449C11.6597 8.26386 11.6513 8.14271 11.6422 8.02157L11.6339 7.90308C11.4918 6.04945 10.642 4.89535 9.89152 3.87681C9.22085 2.96614 8.64132 2.18001 8.64132 1.03959C8.64132 0.893765 8.55929 0.760076 8.4294 0.693249C8.30027 0.627152 8.14306 0.638928 8.02534 0.724019C6.75845 1.63735 5.9822 3.26272 5.70196 4.37733C5.49386 5.20827 5.45055 6.12918 5.44143 6.79492C4.61885 6.44628 4.36138 5.04651 4.35836 5.03054C4.3371 4.91016 4.26113 4.80647 4.15175 4.75102C4.04315 4.69633 3.91478 4.69367 3.80465 4.74799C3.74766 4.7757 2.41015 5.46044 2.33421 8.12562C2.32813 8.21486 2.32812 8.30488 2.32812 8.39449C2.32816 10.9864 4.42143 13.0948 6.99393 13.0948Z" fill="#DE3720"/>
</svg>
