<svg width="16" height="16" viewBox="0 0 16 16" fill="none" xmlns="http://www.w3.org/2000/svg">
<path d="M14.9565 3.10785H13.7918C13.9455 2.86431 14.0468 2.59092 14.0758 2.30179C14.1681 1.37778 13.6823 0.549459 12.8553 0.182226C12.0951 -0.155331 11.2408 -0.0173409 10.6257 0.541571L9.15505 1.87671C8.86864 1.56291 8.45692 1.36569 7.99998 1.36569C7.54224 1.36569 7.12986 1.56354 6.84339 1.87831L5.3709 0.541414C4.75474 -0.0174974 3.90081 -0.154956 3.14096 0.182413C2.31415 0.549678 1.82828 1.37828 1.9209 2.30226C1.94987 2.59117 2.05118 2.86443 2.20478 3.10785H1.04347C0.467155 3.10785 0 3.57586 0 4.15315V5.7211C0 6.00972 0.233593 6.24376 0.521749 6.24376H15.4783C15.7664 6.24376 16 6.00976 16 5.7211V4.15315C16 3.57586 15.5328 3.10785 14.9565 3.10785ZM6.43477 2.93365V3.10785H3.9803C3.33181 3.10785 2.82143 2.50224 2.9834 1.82587C3.05474 1.52801 3.26937 1.2741 3.54696 1.14556C3.92815 0.969065 4.3504 1.02573 4.67055 1.31601L6.43521 2.91824C6.43511 2.92341 6.43477 2.92848 6.43477 2.93365ZM13.0404 2.16302C13.0015 2.70625 12.5117 3.10792 11.968 3.10792H9.5652V2.93371C9.5652 2.92754 9.56483 2.92144 9.56476 2.91527C9.96451 2.55226 10.8317 1.76489 11.3021 1.3378C11.5694 1.0951 11.9434 0.981806 12.2892 1.08511C12.7853 1.23337 13.0767 1.65604 13.0404 2.16302Z" fill="#DE3720"/>
<path d="M1.04492 7.28906V14.9546C1.04492 15.5319 1.51208 15.9999 2.08839 15.9999H6.95794V7.28906H1.04492Z" fill="#DE3720"/>
<path d="M9.04492 7.28906V15.9999H13.9145C14.4908 15.9999 14.9579 15.5319 14.9579 14.9546V7.28906H9.04492Z" fill="#DE3720"/>
</svg>
