<svg width="22" height="14" viewBox="0 0 22 14" fill="none" xmlns="http://www.w3.org/2000/svg">
<path d="M0 11.4965L2.2 11.4979C2.81016 11.4979 3.3 10.9955 3.3 10.3719V2.51056H0V11.4965ZM1.65 9.25353C1.95078 9.25353 2.2 9.50377 2.2 9.81568C2.2 10.123 1.95078 10.3778 1.65 10.3778C1.34922 10.3778 1.1 10.1219 1.1 9.81603C1.1 9.50314 1.34922 9.25353 1.65 9.25353ZM11.99 0.250017C11.717 0.250017 11.4517 0.354396 11.2502 0.542798L7.86844 3.70588C7.865 3.71291 7.865 3.71994 7.85813 3.71994C7.2875 4.26838 7.29781 5.14377 7.78594 5.68869C8.22422 6.14924 9.13963 6.30814 9.71541 5.78537C9.72125 5.7801 9.72469 5.7801 9.72813 5.77658L12.474 3.20666C12.6974 3.00026 13.0498 3.01344 13.2516 3.24181C13.4578 3.47019 13.4406 3.82611 13.2172 4.03705L12.3193 4.87623L17.325 9.02853C17.4238 9.11628 17.5141 9.20417 17.5957 9.30071V2.46838C16.187 1.02838 14.2792 0.222595 12.2882 0.222595L11.99 0.250017ZM11.5019 5.64299L10.4706 6.60943C9.44797 7.56252 7.88391 7.47041 6.97125 6.45576C6.05 5.42502 6.12219 3.82541 7.12594 2.88322L9.93781 0.250017H9.71094C7.72406 0.250017 5.81281 1.06142 4.40688 2.4965L4.4 10.368L5.02734 10.3693L8.13828 13.2458C9.08359 14.0322 10.4672 13.8828 11.232 12.9207L11.8549 13.4565C12.4008 13.8819 13.2086 13.8256 13.6555 13.2677L14.7342 11.9106L14.9189 12.0688C15.3915 12.4555 16.0835 12.3852 16.4658 11.9018L16.7936 11.4877C17.1759 11.0043 17.1042 10.3001 16.6323 9.90814L11.5019 5.64299ZM18.7 2.51408V10.375C18.7 10.9945 19.1898 11.5018 19.7691 11.5018L22 11.5V2.50353L18.7 2.51408ZM20.35 10.375C20.0492 10.375 19.8 10.1203 19.8 9.81287C19.8 9.50086 20.0492 9.25072 20.35 9.25072C20.6508 9.25072 20.9 9.50314 20.9 9.81603C20.9 10.1219 20.6525 10.375 20.35 10.375Z" fill="#DE3720"/>
</svg>
