<svg width="18" height="16" viewBox="0 0 18 16" fill="none" xmlns="http://www.w3.org/2000/svg">
<path d="M10.5332 9C13.0146 9 15.0332 6.98138 15.0332 4.5C15.0332 2.01862 13.0146 0 10.5332 0C8.05182 0 6.0332 2.01862 6.0332 4.5C6.0332 6.98138 8.05182 9 10.5332 9ZM10.0332 2.09206V1.52005C10.0332 1.24362 10.2569 1.02005 10.5332 1.02005C10.8095 1.02005 11.0332 1.24362 11.0332 1.52005V2.09766C11.3632 2.21576 11.6521 2.43802 11.832 2.74948C11.9707 2.9888 11.8887 3.2944 11.6499 3.43255C11.4087 3.57174 11.104 3.48919 10.9668 3.25052C10.8775 3.0957 10.7115 3 10.5332 3C10.2573 3 10.0332 3.22409 10.0332 3.5C10.0332 3.77591 10.2573 4 10.5332 4C11.3603 4 12.0332 4.67292 12.0332 5.5C12.0332 6.15104 11.6139 6.70078 11.0332 6.90794V7.46003C11.0332 7.73633 10.8095 7.96003 10.5332 7.96003C10.2569 7.96003 10.0332 7.73633 10.0332 7.46003V6.90234C9.70326 6.78411 9.41432 6.56198 9.23438 6.25052C9.0957 6.0112 9.17773 5.7056 9.41654 5.56745C9.65573 5.42682 9.96185 5.51029 10.0996 5.74948C10.1889 5.9043 10.3549 6 10.5332 6C10.8091 6 11.0332 5.77591 11.0332 5.5C11.0332 5.22409 10.8091 5 10.5332 5C9.70612 5 9.0332 4.32708 9.0332 3.5C9.0332 2.84896 9.45247 2.29922 10.0332 2.09206Z" fill="#DE3720"/>
<path d="M16.4837 9.64393C16.1322 9.50552 15.7318 9.59614 15.474 9.87218C15.478 9.86802 14.4919 10.8915 12.9633 12.52C12.7233 12.79 12.3934 12.95 12.0333 12.98C11.9353 13.0128 8.08672 13 7.98333 13C7.70325 13 7.48333 12.78 7.48333 12.5C7.48333 12.22 7.70325 12 7.98333 12H11.5333C12.0857 12 12.5333 11.5523 12.5333 11C12.5333 10.4477 12.0857 10 11.5333 10H8.72331L8.34336 9.66997C7.01836 8.51919 5.04831 8.51919 3.72331 9.66997L3.34336 10H0.5C0.223828 10 0 10.2239 0 10.5V14.5C0 14.7762 0.223828 15 0.5 15H3.46328C3.73333 15.08 4.00325 15.2 4.29336 15.3201C5.03333 15.64 5.87344 16 7.07331 16H12.0333C12.8203 16 13.5612 15.6296 14.0333 15L16.7667 11.4C16.9667 11.14 17.0667 10.83 17.0667 10.5C17.0665 10.1218 16.8353 9.78247 16.4837 9.64393Z" fill="#DE3720"/>
</svg>
