<svg xmlns="http://www.w3.org/2000/svg" xmlns:xlink="http://www.w3.org/1999/xlink" xmlns:svg="http://www.w3.org/2000/svg">
    <symbol id="account" viewBox="0 0 32 32">
        <g id="user_account_people_man" data-name="user, account, people, man">
            <path d="m23.7373 16.1812a1 1 0 1 0 -1.4062 1.4218 8.9378 8.9378 0 0 1 2.6689 6.397c0 1.2231-3.5059 3-9 3s-9-1.7778-9-3.002a8.9385 8.9385 0 0 1 2.6348-6.3627 1 1 0 1 0 -1.4141-1.4141 10.9267 10.9267 0 0 0 -3.2207 7.7788c0 3.2476 5.667 5 11 5s11-1.7524 11-5a10.92 10.92 0 0 0 -3.2627-7.8188z" />
            <path d="m16 17a7 7 0 1 0 -7-7 7.0081 7.0081 0 0 0 7 7zm0-12a5 5 0 1 1 -5 5 5.0059 5.0059 0 0 1 5-5z" />
        </g>
    </symbol>
    <symbol id="award" viewBox="0 0 20 12" fill="#DE3720" xmlns="http://www.w3.org/2000/svg">
        <path d="M19.4141 0H0.585938C0.262344 0 0 0.261309 0 0.583627V11.4164C0 11.7387 0.262344 12 0.585938 12H19.4141C19.7377 12 20 11.7387 20 11.4164V0.583627C20 0.261309 19.7377 0 19.4141 0ZM3.34824 6.85357H10.6305C10.9541 6.85357 11.2164 7.11488 11.2164 7.4372C11.2164 7.75952 10.9541 8.02083 10.6305 8.02083H3.34824C3.02465 8.02083 2.7623 7.75952 2.7623 7.4372C2.7623 7.11488 3.02465 6.85357 3.34824 6.85357ZM2.7623 4.5628C2.7623 4.24048 3.02465 3.97917 3.34824 3.97917H9.07566C9.39926 3.97917 9.6616 4.24048 9.6616 4.5628C9.6616 4.88512 9.39926 5.14642 9.07566 5.14642H3.34824C3.02465 5.14642 2.7623 4.88512 2.7623 4.5628ZM15.5435 6.49624C14.9741 6.29574 14.391 6.06634 13.9834 5.74787C13.5689 5.42412 13.379 4.86628 13.4877 4.29207C13.6045 3.67479 14.0352 3.18283 14.6129 3.00475V2.82542C14.6129 2.5031 14.8752 2.24179 15.1988 2.24179C15.5224 2.24179 15.7848 2.5031 15.7848 2.82542V2.96876C16.1488 3.0607 16.403 3.22695 16.5079 3.30504C16.767 3.49803 16.8201 3.86377 16.6263 4.12193C16.4325 4.38004 16.0654 4.43292 15.8062 4.2399C15.6984 4.15963 15.4004 3.98715 14.9622 4.11854C14.7171 4.19212 14.653 4.43545 14.6393 4.50825C14.6132 4.64602 14.6409 4.77812 14.7066 4.82944C14.982 5.04456 15.4816 5.23642 15.9341 5.39571C16.7916 5.69764 17.2684 6.4892 17.1205 7.36545C17.0112 8.01281 16.5328 8.66881 15.7848 8.90191V9.12295C15.7848 9.44527 15.5225 9.70658 15.1989 9.70658C14.8753 9.70658 14.6129 9.44527 14.6129 9.12295V8.96276C14.2673 8.9167 13.9716 8.80351 13.5784 8.54726C13.3075 8.37081 13.2316 8.00908 13.4088 7.73937C13.5859 7.46961 13.9491 7.39405 14.2199 7.57046C14.5805 7.80547 14.7173 7.82691 15.195 7.82376C15.6489 7.82072 15.9122 7.48378 15.9648 7.17196C15.9962 6.98606 15.9832 6.65106 15.5435 6.49624Z" fill="#DE3720"/>
    </symbol>
    <svg  id="browser" width="16" height="16" viewBox="0 0 16 16" fill="#DE3720" xmlns="http://www.w3.org/2000/svg">
        <path d="M13.6661 0H2.33324C1.06662 0 0 1.06662 0 2.33324V3.3332H4.39983C4.59982 3.3332 4.73315 3.39987 4.86647 3.53319L5.86644 4.53315H15.9994V2.33324C15.9994 1.06662 14.9327 0 13.6661 0ZM8.26634 2.73323C7.99968 2.99988 7.5997 2.99988 7.33304 2.73323C7.06639 2.46657 7.06639 2.06658 7.33304 1.79993C7.5997 1.53327 8.06635 1.53327 8.26634 1.79993C8.46633 1.99992 8.533 2.46657 8.26634 2.73323ZM10.9329 2.73323C10.5996 2.99988 10.1996 2.99988 9.99961 2.73323C9.73295 2.46657 9.73295 1.99992 9.99961 1.79993C10.2663 1.53327 10.6662 1.53327 10.9329 1.79993C11.1996 2.06658 11.1329 2.46657 10.9329 2.73323ZM13.5995 2.73323C13.3328 2.99988 12.8662 2.99988 12.6662 2.73323C12.3995 2.46657 12.3995 2.06658 12.6662 1.79993C12.9328 1.53327 13.3328 1.53327 13.5995 1.79993C13.7995 1.99992 13.8661 2.46657 13.5995 2.73323Z" fill="#DE3720"/>
        <path d="M5.06647 5.66683L4.06651 4.66687H0V13.6665C0 14.9331 1.06662 15.9998 2.33324 15.9998H13.6661C14.9327 15.9998 15.9994 14.9331 15.9994 13.6665V5.86682H5.59978C5.39979 5.86682 5.19979 5.73349 5.06647 5.66683ZM10.9996 12.8665H4.9998C4.59982 12.8665 4.33316 12.5999 4.33316 12.1999C4.33316 11.7999 4.59982 11.5333 4.9998 11.5333H11.0662C11.4662 11.5333 11.7329 11.7999 11.7329 12.1999C11.7329 12.5999 11.3995 12.8665 10.9996 12.8665ZM11.6662 9.0667C11.6662 9.46668 11.3995 9.73334 10.9996 9.73334H4.9998C4.59982 9.73334 4.33316 9.46668 4.33316 9.0667C4.33316 8.66671 4.59982 8.40006 4.9998 8.40006H11.0662C11.3996 8.40006 11.6662 8.73338 11.6662 9.0667Z" fill="#DE3720"/>
        </svg>
        
</svg>