<svg width="17" height="22" viewBox="0 0 17 22" fill="none" xmlns="http://www.w3.org/2000/svg">
<path d="M16.2697 19.1791C16.0271 18.7311 15.6252 18.4044 15.1365 18.2594L14.9356 18.1996L15.1365 18.1398C15.6243 17.9944 16.0271 17.6676 16.2688 17.2196C16.5114 16.7716 16.5651 16.256 16.4201 15.7685C16.2751 15.2802 15.9484 14.8774 15.5008 14.6348C15.0514 14.3913 14.534 14.3385 14.0488 14.4844L8.2505 16.2102L2.45115 14.4845C1.96506 14.3399 1.44859 14.3923 0.999188 14.6349C0.551594 14.8775 0.224867 15.2803 0.0798513 15.7681C-0.0651646 16.256 -0.0114548 16.7716 0.231141 17.2196C0.472834 17.6677 0.875656 17.9944 1.36351 18.1394L1.56503 18.1994L1.36351 18.2594C0.51172 18.5128 -0.0244741 19.3126 0.0086969 20.1618C0.0086969 20.1633 0.00826714 20.1646 0.00826714 20.1661C0.00826714 20.1667 0.00861102 20.1672 0.00861102 20.1678C0.0150991 20.3215 0.0340048 20.4762 0.0798943 20.6302C0.22491 21.1185 0.551637 21.5213 0.999231 21.7639C1.21235 21.8792 1.4424 21.9372 1.67563 21.9659C1.72732 21.9861 1.78266 21.9994 1.84157 21.9994C1.86086 21.9994 1.87878 21.9943 1.89799 21.9936C1.90009 21.9936 1.90211 21.9944 1.90426 21.9944C1.9147 21.9944 1.92501 21.99 1.9355 21.9898C2.05602 21.9836 2.17298 21.967 2.28628 21.9385C2.34111 21.9272 2.39697 21.9305 2.45124 21.9143L8.25033 20.1887L12.5215 21.4598L12.6839 21.5159C12.7035 21.5226 12.7243 21.5221 12.7446 21.5261L14.049 21.9143C14.1958 21.9582 14.3489 21.9814 14.5297 21.9872C14.5503 22.0056 14.5727 21.9891 14.5942 21.9886C15.4356 21.9886 16.1804 21.4376 16.4203 20.6306C16.5651 20.1423 16.5114 19.6272 16.2697 19.1791ZM1.9691 21.0569C1.78524 21.0687 1.60215 21.0472 1.43604 20.9578C1.20328 20.8316 1.03412 20.623 0.958927 20.3693C0.933361 20.2833 0.937873 20.1977 0.935811 20.1121C0.965244 19.6332 1.35492 19.2494 1.84153 19.2494C2.3473 19.2494 2.75816 19.6607 2.75816 20.166C2.75816 20.6262 2.41192 20.9922 1.9691 21.0569ZM15.541 20.3697C15.4139 20.7981 15.0012 21.0666 14.5823 21.0729C14.1034 21.0326 13.7417 20.6432 13.7417 20.1661C13.7417 19.6608 14.1526 19.2495 14.6584 19.2495C15.1641 19.2495 15.575 19.6608 15.575 20.1661C15.575 20.1773 15.575 20.1885 15.5759 20.1997C15.5697 20.2565 15.5581 20.3133 15.541 20.3697Z" fill="#2D2D2D"/>
<path d="M8.24217 14.6662C11.2741 14.6662 13.7411 12.1812 13.7411 9.1265C13.7411 8.97255 13.7313 8.82977 13.7205 8.68698L13.7107 8.54734C13.5433 6.36269 12.5416 5.00251 11.6572 3.80208C10.8668 2.72879 10.1837 1.80227 10.1837 0.458202C10.1837 0.286331 10.0871 0.128769 9.93397 0.0500088C9.78178 -0.0278916 9.59651 -0.0140131 9.45776 0.0862735C7.96464 1.1627 7.04977 3.07833 6.71948 4.39198C6.47422 5.3713 6.42317 6.45666 6.41243 7.24129C5.44295 6.83039 5.13951 5.18065 5.13595 5.16183C5.1109 5.01995 5.02135 4.89775 4.89245 4.8324C4.76445 4.76795 4.61316 4.76481 4.48335 4.82883C4.4162 4.86149 2.83984 5.66851 2.75034 8.80961C2.74316 8.9148 2.74316 9.02089 2.74316 9.1265C2.74321 12.1812 5.21028 14.6662 8.24217 14.6662Z" fill="#4B4B4B"/>
</svg>
