<svg width="22" height="22" viewBox="0 0 22 22" fill="none" xmlns="http://www.w3.org/2000/svg">
<path d="M3.24882 11.6482H0C0.143166 14.1328 1.10786 16.4617 2.76349 18.3198L5.06344 16.0198C4.04632 14.8189 3.38633 13.3066 3.24882 11.6482Z" fill="#2D2D2D"/>
<path d="M5.06344 5.98006L2.76349 3.68011C1.10786 5.53825 0.143166 7.86714 0 10.3518H3.24882C3.38633 8.69329 4.04632 7.181 5.06344 5.98006Z" fill="#2D2D2D"/>
<path d="M18.7511 10.3518H22C21.8568 7.86723 20.8921 5.53825 19.2365 3.68011L16.9365 5.9801C17.9536 7.181 18.6137 8.69329 18.7511 10.3518Z" fill="#2D2D2D"/>
<path d="M10.3523 3.24875V-3.05176e-05C7.86773 0.143135 5.53879 1.10779 3.68066 2.76342L5.98061 5.06341C7.18155 4.04625 8.6938 3.38625 10.3523 3.24875Z" fill="#2D2D2D"/>
<path d="M18.3201 2.76346C16.462 1.10783 14.133 0.143135 11.6484 -3.05176e-05V3.24879C13.3069 3.3863 14.8191 4.04629 16.0201 5.06341L18.3201 2.76346Z" fill="#2D2D2D"/>
<path d="M11.6484 18.7512V22C14.133 21.8568 16.462 20.8921 18.3201 19.2365L16.0201 16.9366C14.8191 17.9537 13.3069 18.6137 11.6484 18.7512Z" fill="#2D2D2D"/>
<path d="M3.68066 19.2364C5.53879 20.8921 7.86773 21.8568 10.3523 21.9999V18.7511C8.6938 18.6136 7.18155 17.9536 5.98061 16.9365L3.68066 19.2364Z" fill="#2D2D2D"/>
<path d="M16.9365 16.0198L19.2365 18.3198C20.8921 16.4617 21.8568 14.1327 22 11.6482H18.7511C18.6137 13.3066 17.9536 14.8189 16.9365 16.0198Z" fill="#2D2D2D"/>
<path d="M10.9998 10.3518C10.6423 10.3518 10.3516 10.6426 10.3516 11C10.3841 11.8587 11.6156 11.8585 11.648 11C11.648 10.6425 11.3572 10.3518 10.9998 10.3518Z" fill="#4B4B4B"/>
<path d="M17.4822 11C17.4822 7.42583 14.5744 4.51801 11.0002 4.51801C2.4128 4.84388 2.41513 17.1574 11.0003 17.482C14.5744 17.482 17.4822 14.5741 17.4822 11ZM14.8894 11.6482H12.8334C12.6377 12.1998 12.2 12.6375 11.6484 12.8331V14.8892H10.352V12.8331C9.80047 12.6375 9.36276 12.1998 9.16713 11.6482H7.11104V10.3518H9.16713C9.36276 9.80023 9.80047 9.36252 10.352 9.1669V7.11081H11.6484V9.1669C12.2 9.36252 12.6377 9.80023 12.8334 10.3518H14.8894V11.6482Z" fill="#4B4B4B"/>
</svg>
