<svg width="22" height="22" viewBox="0 0 22 22" fill="none" xmlns="http://www.w3.org/2000/svg">
<path d="M10.2715 14.0698L3.04573 21.4716C2.34894 22.1761 1.21938 22.1761 0.522593 21.4718C-0.174198 20.7673 -0.174198 19.625 0.522593 18.9204L7.7134 11.5116L10.2715 14.0698Z" fill="#2D2D2D"/>
<path d="M13.3558 15.9797L8.39327 10.9623L5.9541 8.49598L12.0817 2.30054L19.4832 9.7843L13.3558 15.9797Z" fill="#2D2D2D"/>
<path d="M4.64384 8.11955C4.73686 8.21361 4.85842 8.2605 4.98024 8.2605C5.10203 8.2605 5.22386 8.21361 5.31661 8.11955L5.44912 7.98556L11.5765 1.79012L11.709 1.65613C11.8947 1.46826 11.8947 1.16377 11.709 0.97589L10.8832 0.140946C10.7904 0.0468902 10.6687 0 10.5468 0C10.425 0 10.3032 0.0468902 10.2104 0.140946L3.81807 6.60436C3.63226 6.79224 3.63226 7.09677 3.81807 7.28465L4.64384 8.11955Z" fill="#4B4B4B"/>
<path d="M20.7934 10.1608C20.7003 10.0667 20.5788 10.0198 20.457 10.0198C20.3352 10.0198 20.2134 10.0667 20.1206 10.1608L19.9881 10.2948L13.8608 16.4902L13.7282 16.6242C13.5424 16.812 13.5424 17.1165 13.7282 17.3045L14.5539 18.1394C14.647 18.2334 14.7685 18.2803 14.8903 18.2803C15.0121 18.2803 15.134 18.2334 15.2267 18.1394L21.619 11.676C21.8048 11.4881 21.8048 11.1836 21.619 10.9957L20.7934 10.1608Z" fill="#4B4B4B"/>
</svg>
